<svg xmlns="http://www.w3.org/2000/svg" width="15" height="15"><g id="surface1"><path style="stroke:none;fill-rule:nonzero;fill:#353535;fill-opacity:1" d="M7.496 4.512a2.997 2.997 0 0 0-2.988 2.992c.164 3.96 5.812 3.96 5.98 0a2.997 2.997 0 0 0-2.992-2.992Zm0 5.183c-1.21 0-2.191-.98-2.195-2.191.117-2.914 4.277-2.914 4.394 0a2.2 2.2 0 0 1-2.199 2.191Zm0 0"/><path style="stroke:none;fill-rule:nonzero;fill:#353535;fill-opacity:1" d="M14.926 6.484a.424.424 0 0 0-.207-.293.439.439 0 0 0-.356-.043c-.59 0-1.078-.464-1.11-1.054a.404.404 0 0 0-.183-.32c-.265-.172-.535.097-.816.066a1.12 1.12 0 0 1-.934-.52 1.12 1.12 0 0 1-.082-1.058.416.416 0 0 0 .004-.328.418.418 0 0 0-.242-.22 1.108 1.108 0 0 1-.773-1.058c-.043-.36.293-.61.195-.914a.384.384 0 0 0-.23-.242 7.503 7.503 0 0 0-8.735 2.555 7.5 7.5 0 0 0 8.98 11.344 7.5 7.5 0 0 0 4.489-7.915Zm-7.43 7.723A6.722 6.722 0 0 1 .793 7.504C.723 3.054 5.301-.29 9.512 1.105c-.25.848.113 1.762.883 2.204a1.92 1.92 0 0 0 2.148 2.289 1.905 1.905 0 0 0 1.633 1.336 6.725 6.725 0 0 1-1.746 5.097 6.747 6.747 0 0 1-4.934 2.176Zm0 0"/><path style="stroke:none;fill-rule:nonzero;fill:#353535;fill-opacity:1" d="M5.477 12.078a5.013 5.013 0 0 1-2.989-4.574.398.398 0 0 0-.398-.399.395.395 0 0 0-.399.399 5.808 5.808 0 0 0 3.465 5.3c.133.071.293.063.418-.023a.397.397 0 0 0-.097-.703Zm0 0"/></g></svg>