<?xml version="1.0" encoding="UTF-8"?>
<svg xmlns="http://www.w3.org/2000/svg" xmlns:xlink="http://www.w3.org/1999/xlink" width="15px" height="15px" viewBox="0 0 15 15" version="1.1">
<g id="surface1">
<path style=" stroke:none;fill-rule:nonzero;fill:rgb(20.784314%,20.784314%,20.784314%);fill-opacity:1;" d="M 7.496094 4.511719 C 5.847656 4.515625 4.511719 5.851562 4.507812 7.503906 C 4.671875 11.464844 10.320312 11.464844 10.488281 7.503906 C 10.484375 5.851562 9.148438 4.515625 7.496094 4.511719 Z M 7.496094 9.695312 C 6.285156 9.695312 5.304688 8.714844 5.300781 7.503906 C 5.417969 4.589844 9.578125 4.589844 9.695312 7.503906 C 9.691406 8.710938 8.710938 9.695312 7.496094 9.695312 Z M 7.496094 9.695312 "/>
<path style=" stroke:none;fill-rule:nonzero;fill:rgb(20.784314%,20.784314%,20.784314%);fill-opacity:1;" d="M 14.925781 6.484375 C 14.902344 6.359375 14.828125 6.253906 14.71875 6.191406 C 14.609375 6.125 14.480469 6.113281 14.363281 6.148438 C 13.773438 6.148438 13.285156 5.683594 13.253906 5.09375 C 13.246094 4.960938 13.179688 4.84375 13.070312 4.773438 C 12.804688 4.601562 12.535156 4.871094 12.253906 4.839844 C 11.875 4.835938 11.523438 4.640625 11.320312 4.320312 C 11.117188 4.003906 11.085938 3.605469 11.238281 3.261719 C 11.285156 3.15625 11.285156 3.039062 11.242188 2.933594 C 11.195312 2.832031 11.105469 2.75 11 2.714844 C 10.539062 2.570312 10.226562 2.140625 10.226562 1.65625 C 10.183594 1.296875 10.519531 1.046875 10.421875 0.742188 C 10.386719 0.628906 10.300781 0.542969 10.191406 0.5 C 7.035156 -0.710938 3.460938 0.332031 1.457031 3.054688 C -0.546875 5.777344 -0.480469 9.503906 1.617188 12.152344 C 3.714844 14.804688 7.328125 15.722656 10.4375 14.398438 C 13.546875 13.070312 15.382812 9.832031 14.925781 6.484375 Z M 7.496094 14.207031 C 3.800781 14.199219 0.800781 11.199219 0.792969 7.503906 C 0.722656 3.054688 5.300781 -0.289062 9.511719 1.105469 C 9.261719 1.953125 9.625 2.867188 10.394531 3.308594 C 10.269531 3.921875 10.445312 4.554688 10.875 5.011719 C 11.300781 5.464844 11.921875 5.6875 12.542969 5.597656 C 12.769531 6.332031 13.414062 6.859375 14.175781 6.933594 C 14.332031 8.800781 13.695312 10.648438 12.429688 12.03125 C 11.160156 13.410156 9.371094 14.199219 7.496094 14.207031 Z M 7.496094 14.207031 "/>
<path style=" stroke:none;fill-rule:nonzero;fill:rgb(20.784314%,20.784314%,20.784314%);fill-opacity:1;" d="M 5.476562 12.078125 C 3.664062 11.277344 2.492188 9.484375 2.488281 7.503906 C 2.488281 7.28125 2.308594 7.105469 2.089844 7.105469 C 1.867188 7.105469 1.691406 7.28125 1.691406 7.503906 C 1.695312 9.800781 3.054688 11.875 5.15625 12.804688 C 5.289062 12.875 5.449219 12.867188 5.574219 12.78125 C 5.699219 12.695312 5.761719 12.546875 5.742188 12.402344 C 5.722656 12.253906 5.621094 12.125 5.476562 12.078125 Z M 5.476562 12.078125 "/>
</g>
</svg>
