<svg aria-hidden="true" style="position: absolute; width: 0; height: 0; overflow: hidden;" version="1.1" xmlns="http://www.w3.org/2000/svg" xmlns:xlink="http://www.w3.org/1999/xlink">
<defs>
<symbol id="icon-face" viewBox="0 0 16 32">
<path d="M14.512 0.006l-3.616-0.006c-4.064 0-6.69 3.092-6.69 7.876v3.63h-3.638c-0.314 0-0.568 0.294-0.568 0.654v5.26c0 0.36 0.254 0.652 0.568 0.652h3.638v13.276c0 0.36 0.254 0.652 0.568 0.652h4.746c0.314 0 0.568-0.292 0.568-0.652v-13.276h4.252c0.314 0 0.568-0.292 0.568-0.652l0.002-5.26c0-0.174-0.060-0.34-0.166-0.462-0.097-0.116-0.241-0.189-0.402-0.192h-4.254v-3.078c0-1.48 0.308-2.23 1.988-2.23h2.436c0.314 0 0.568-0.294 0.568-0.654v-4.884c0-0.36-0.254-0.652-0.568-0.654z"></path>
</symbol>
<symbol id="icon-footer-location" viewBox="0 0 23 32">
<path d="M11.733 0c6.47 0 11.733 5.131 11.733 11.435 0 2.496-0.811 4.866-2.34 6.854l-8.67 11.381c-0.021 0.026-0.055 0.036-0.079 0.062-0.163 0.178-0.396 0.29-0.656 0.29-0.289 0-0.546-0.138-0.708-0.352l-0.002-0.002c-2.498-3.245-7.074-9.308-8.832-11.595l-0.004-0.004-0.011-0.013c-1.353-1.824-2.165-4.12-2.165-6.605 0-0.006 0-0.012 0-0.017v0.001c0-6.304 5.263-11.435 11.733-11.435zM11.733 17.604c3.484 0 6.33-2.773 6.33-6.17 0-3.394-2.846-6.17-6.33-6.17s-6.33 2.773-6.33 6.17c0 3.394 2.846 6.17 6.33 6.17z"></path>
</symbol>
<symbol id="icon-footer-phone" viewBox="0 0 32 32">
<path d="M29.43 20.47c-0.010 0-0.021 0-0.033 0-2.027 0-3.978-0.324-5.805-0.924l0.131 0.037c-0.894-0.295-1.991-0.025-2.535 0.519l-3.599 2.649c-4.172-2.171-6.742-4.677-8.938-8.711l2.634-3.414c0.687-0.667 0.93-1.642 0.638-2.555-0.577-1.653-0.911-3.559-0.911-5.543 0-0.009 0-0.018 0-0.026v0.001c-0.002-1.381-1.157-2.503-2.57-2.503h-5.876c-1.415 0-2.567 1.122-2.567 2.503 0 15.815 13.201 28.682 29.43 28.682 1.415 0 2.567-1.122 2.567-2.503v-5.711c0-1.378-1.152-2.501-2.567-2.501z"></path>
</symbol>
<symbol id="icon-insta" viewBox="0 0 32 32">
<path d="M16.316 32h-0.32c-0.137 0.001-0.299 0.001-0.461 0.001-2.329 0-4.64-0.072-6.933-0.212l0.314 0.015c-2.066-0.126-3.952-0.84-5.454-2.064-1.45-1.182-2.44-2.78-2.942-4.75-0.44-1.716-0.46-3.4-0.484-5.026-0.016-1.17-0.032-2.554-0.036-3.96 0.004-1.414 0.020-2.8 0.036-3.968 0.022-1.628 0.046-3.31 0.484-5.026 0.5-1.97 1.492-3.568 2.94-4.75 1.506-1.224 3.392-1.94 5.46-2.064 2.252-0.138 4.57-0.2 7.084-0.196 0.132-0.001 0.288-0.001 0.443-0.001 2.335 0 4.653 0.071 6.952 0.212l-0.316-0.015c2.066 0.124 3.952 0.84 5.454 2.064 1.45 1.182 2.44 2.78 2.944 4.75 0.436 1.716 0.46 3.4 0.48 5.026 0.018 1.17 0.034 2.554 0.038 3.96v0.006c-0.004 1.408-0.020 2.792-0.036 3.96-0.022 1.63-0.046 3.312-0.482 5.028-0.504 1.97-1.494 3.568-2.944 4.75-1.502 1.224-3.388 1.94-5.454 2.064-1.968 0.125-4.268 0.196-6.585 0.196-0.064 0-0.129-0-0.193-0h0.010zM15.996 29.5c0.143 0.001 0.312 0.001 0.48 0.001 2.271 0 4.526-0.069 6.763-0.206l-0.307 0.015c1.56-0.096 2.916-0.602 4.026-1.508 1.026-0.836 1.734-1.99 2.1-3.43 0.364-1.428 0.386-2.96 0.406-4.444 0.016-1.16 0.032-2.534 0.036-3.928-0.004-1.394-0.020-2.768-0.036-3.93-0.020-1.48-0.040-3.014-0.406-4.44-0.368-1.44-1.074-2.596-2.1-3.432-1.11-0.906-2.464-1.412-4.026-1.508-1.93-0.122-4.186-0.191-6.457-0.191-0.167 0-0.333 0-0.5 0.001l0.026-0c-0.144-0.001-0.314-0.001-0.485-0.001-2.269 0-4.522 0.069-6.756 0.206l0.307-0.015c-1.56 0.096-2.916 0.602-4.026 1.508-1.026 0.836-1.734 1.99-2.1 3.43-0.364 1.428-0.386 2.96-0.406 4.442-0.016 1.162-0.032 2.538-0.036 3.932 0.004 1.39 0.020 2.766 0.036 3.926 0.020 1.484 0.040 3.016 0.406 4.444 0.366 1.44 1.074 2.594 2.1 3.43 1.11 0.906 2.464 1.412 4.026 1.508 2.2 0.134 4.468 0.196 6.928 0.19zM15.936 23.812c-4.312-0.006-7.805-3.5-7.81-7.812v-0c0.005-4.313 3.501-7.809 7.814-7.812h0c4.312 0.006 7.805 3.5 7.81 7.812v0c-0.005 4.313-3.499 7.807-7.812 7.812h-0zM15.936 10.688c-2.931 0.006-5.305 2.381-5.31 5.312v0c0.005 2.933 2.381 5.309 5.314 5.312h0c2.931-0.006 5.305-2.381 5.31-5.312v-0c-0.005-2.932-2.38-5.307-5.312-5.312h-0zM24.626 5.688c-0.018-0.001-0.040-0.001-0.061-0.001-1.036 0-1.876 0.84-1.876 1.876s0.84 1.876 1.876 1.876c0.022 0 0.043-0 0.064-0.001l-0.003 0c1.009-0.034 1.815-0.86 1.815-1.875s-0.805-1.841-1.812-1.875l-0.003-0z"></path>
</symbol>
<symbol id="icon-logo" viewBox="0 0 61 32">
<path d="M36.152 16.031c0 0.256-0.007 0.512 0 0.768 0.076 2.603-0.63 4.949-1.762 7.161-0.295 0.544-0.653 1.291-0.985 2.051l-0.085 0.219c-0.27 0.637-0.645 1.083-1.228 1.344-0.326 0.145-0.628 0.397-0.901 0.657-1.257 1.196-2.682 2.052-4.207 2.655-1.013 0.4-2.056 0.753-3.156 0.737-0.328-0.004-0.657 0.112-0.985 0.113s-0.657-0.121-0.983-0.105c-1.419 0.070-2.733-0.433-4.039-0.961-1.425-0.576-2.682-1.485-3.865-2.568-1.669-1.529-2.86-3.454-3.734-5.659-0.471-1.188-0.855-2.414-0.963-3.733-0.018-0.219-0.081-0.435-0.137-0.648-0.397-1.479-0.168-2.929 0.077-4.403 0.188-1.127 0.381-2.24 0.747-3.31 0.967-2.83 2.502-5.147 4.628-6.968 1.773-1.516 3.757-2.448 5.914-2.848 2.475-0.46 4.891-0.129 7.236 0.945 1.17 0.537 2.274 1.218 3.238 2.119 0.899 0.84 1.71 1.824 2.476 2.829 0.695 0.911 1.187 1.996 1.628 3.103 0.687 1.729 1.136 3.519 1.090 5.442-0.010 0.355-0.003 0.708-0.003 1.060zM35.201 12.527c-0.069-0.604-0.111-1.305-0.239-1.984-0.365-1.955-1.348-3.481-2.658-4.728-0.744-0.709-1.555-1.324-2.354-1.951-0.271-0.212-0.585-0.407-0.901-0.472-0.812-0.172-1.634-0.333-2.457-0.382-1.429-0.084-2.713-0.509-3.792-1.654-0.794-0.842-1.659-0.923-2.484-0.182-0.936 0.839-2.001 1.332-3.086 1.82-0.795 0.358-1.561 0.808-2.326 1.253-0.639 0.372-1.011 0.953-1.002 1.832 0.005 0.494-0.191 0.905-0.588 1.179-0.355 0.248-0.665 0.497-0.958 0.765l0.007-0.006c-0.846 0.767-1.505 1.63-1.647 2.971-0.113 1.060-0.391 2.108-1.022 2.981-0.206 0.295-0.342 0.653-0.376 1.040l-0.001 0.008c-0.058 0.793-0.034 1.595-0.017 2.392 0.005 0.213 0.085 0.442 0.18 0.63 0.258 0.524 0.494 0.947 0.749 1.357l-0.038-0.066c0.619 0.992 1.158 2.008 1.282 3.267 0.12 1.22 0.632 2.215 1.498 2.974 1.254 1.1 2.463 2.268 3.736 3.339 0.684 0.577 1.416 1.082 2.319 1.199s1.787 0.399 2.596 0.923c0.17 0.105 0.356 0.171 0.547 0.194 1.141 0.142 2.198-0.184 3.2-0.799 0.243-0.152 0.559-0.33 0.881-0.497l0.083-0.039c0.783-0.404 1.652-0.669 2.334-1.232 0.76-0.627 1.571-0.905 2.442-1.081 0.376-0.076 0.684-0.254 0.929-0.577 0.292-0.383 0.563-0.788 0.867-1.157 0.315-0.382 0.543-0.788 0.598-1.331 0.085-0.833 0.394-1.569 0.787-2.276 0.665-1.194 1.043-2.514 1.24-3.918 0.052-0.368 0.081-0.68-0.077-1.004-0.458-0.935-0.271-1.997-0.416-2.992-0.073-0.538 0.096-1.127 0.166-1.798l-0.002 0.001zM29.692 3.187c-0.193-0.246-0.254-0.357-0.342-0.426-0.158-0.126-0.33-0.229-0.498-0.338-1.437-0.932-3.010-1.385-4.618-1.711-0.323-0.066-0.662-0.036-0.992-0.022-0.086 0.004-0.188 0.099-0.242 0.186-0.025 0.039 0.031 0.177 0.079 0.243 0.358 0.491 0.824 0.861 1.35 1.072 0.833 0.357 1.799 0.578 2.814 0.611l0.013 0c0.409 0.013 0.816 0.102 1.223 0.166 0.347 0.057 0.694 0.125 1.216 0.219zM17.485 30.053c-0.964-0.908-1.81-1.719-2.67-2.509-0.712-0.654-1.44-1.285-2.168-1.915-0.082-0.071-0.211-0.069-0.39-0.122 0.877 1.696 3.806 4.273 5.227 4.546zM10.988 8.869c0.582-0.512 1.12-1.050 1.711-1.496 0.828-0.622 1.145-1.394 0.949-2.721-0.588 0.554-1.007 1.221-1.46 1.826-0.479 0.639-0.834 1.4-1.233 2.115-0.031 0.058 0.019 0.172 0.034 0.276zM30.602 28.224c-0.542-0.043-1.089 0.067-1.429 0.405-0.646 0.64-1.414 0.961-2.196 1.281-0.41 0.168-0.797 0.414-1.184 0.649-0.054 0.032-0.064 0.205-0.052 0.307 0.004 0.034 0.148 0.090 0.208 0.067 0.702-0.276 1.427-0.497 2.092-0.866 0.815-0.45 1.58-1.021 2.36-1.55 0.082-0.053 0.125-0.177 0.201-0.294zM9.875 19.352c-0.156 0.53-0.125 0.823-0.027 1.135 0.272 0.866 0.437 1.78 0.927 2.537 0.182 0.281 0.219 0.908 0.554 0.773 0.295-0.118-0.050-0.615-0.071-0.95-0.077-1.28-0.662-2.311-1.384-3.495zM15.138 3.415l0.073 0.126c0.405-0.174 0.815-0.337 1.216-0.522 1.927-0.857 2.784-1.268 3.636-1.687l-1.028 0.456c0.175-0.085 0.335-0.221 0.484-0.359 0.042-0.039 0.034-0.172 0.021-0.254-0.007-0.037-0.089-0.076-0.137-0.079-0.081 0.002-0.162 0.017-0.239 0.046-1.178 0.386-2.289 0.956-3.353 1.649-0.249 0.162-0.45 0.414-0.673 0.625zM35.828 17.16c0.071-0.095 0.127-0.135 0.131-0.18 0.114-1.395-0.014-2.776-0.18-4.155-0.008-0.069-0.091-0.168-0.148-0.177-0.062-0.010-0.16 0.050-0.198 0.115-0.060 0.099-0.101 0.216-0.112 0.342l-0 0.003c-0.015 0.25-0.023 0.543-0.023 0.837 0 0.904 0.079 1.789 0.23 2.649l-0.013-0.091c0.037 0.226 0.2 0.424 0.314 0.655zM9.591 13.312c0.46-0.202 0.528-0.568 0.578-0.898 0.12-0.805 0.42-1.58 0.321-2.431-0.481 1.016-0.907 2.045-0.899 3.328h-0zM20.718 30.985c-1.030-0.525-1.31-0.58-2.227-0.433 0.389 0.17 0.739 0.44 1.091 0.443 0.367 0.007 0.765 0.524 1.137-0.010h-0z"></path>
<path d="M22.843 20.542c-0.705-0.014-1.189-0.354-1.548-1.010-0.334-0.612-0.889-0.93-1.398-1.307-0.641-0.475-1.163-1.012-1.311-1.975-0.103-0.653 0.017-1.221 0.247-1.736 0.193-0.431 0.538-0.832 0.9-1.088 0.393-0.278 0.718-0.54 0.9-1.053 0.205-0.591 0.723-0.627 1.181-0.733 0.431-0.1 0.87-0.164 1.295-0.289 0.581-0.171 1.109-0.118 1.534 0.403 0.328 0.405 0.712 0.695 1.139 0.941 0.445 0.254 0.591 0.553 0.452 1.086-0.095 0.362-0.003 0.608 0.114 0.897 0.128 0.315 0.259 0.635 0.348 0.968 0.293 1.107-0.044 2.039-0.946 2.532-0.559 0.305-0.987 0.712-1.126 1.428-0.056 0.289-0.212 0.453-0.433 0.527-0.446 0.15-0.898 0.274-1.349 0.409zM25.802 15.901c0.014-1.95-1.269-3.51-2.938-3.512-1.498 0-3.004 1.167-3.063 3.404-0.047 1.79 1.248 3.458 2.936 3.464 2.055 0.012 3.025-1.632 3.065-3.357zM19.784 17.765c0-0.25 0.021-0.378-0.003-0.494-0.222-1.059-0.366-2.109 0.137-3.129 0.036-0.073-0.047-0.224-0.076-0.339-0.098 0.037-0.217 0.044-0.292 0.114-0.83 0.784-1.2 2.667 0.234 3.847zM22.865 11.9c0.347 0.146 0.546 0.25 0.753 0.315 0.765 0.233 1.417 0.652 1.871 1.424 0.089 0.152 0.205 0.378 0.376 0.204 0.091-0.093 0.121-0.375 0.068-0.516-0.071-0.188-0.231-0.422-0.386-0.459-0.42-0.101-0.65-0.452-0.924-0.757-0.46-0.509-0.975-0.669-1.758-0.211zM22.818 19.576l-0.010-0.073c-0.22 0-0.443-0.022-0.659 0.009-0.112 0.016-0.213 0.125-0.319 0.192 0.096 0.098 0.18 0.252 0.291 0.284 0.592 0.172 1.19 0.209 1.774-0.054 0.1-0.045 0.211-0.104 0.274-0.197 0.056-0.079 0.073-0.219 0.062-0.325-0.004-0.039-0.143-0.099-0.211-0.086-0.401 0.072-0.801 0.164-1.2 0.249l-0.002 0.001zM25.848 17.576c0.41-0.088 0.594-0.355 0.618-0.764 0.018-0.345 0.013-0.692-0.013-1.037-0.007-0.091-0.117-0.172-0.179-0.258-0.091 0.1-0.277 0.234-0.26 0.293 0.167 0.598-0.182 1.133-0.166 1.764v0.001zM29.603 20.276c-0.024 0.014-0.119 0.106-0.222 0.118-0.094 0.012-0.231-0.024-0.289-0.099-0.263-0.334-0.538-0.717-0.797-1.112l-0.039-0.064c-0.068-0.107-0.096-0.394-0.057-0.419 0.128-0.082 0.379-0.167 0.435-0.096 0.33 0.419 0.621 0.881 0.919 1.332 0.029 0.046 0.020 0.123 0.050 0.34zM15.628 23.56c0.153 0.014 0.454 0.025 0.748 0.083 0.073 0.014 0.171 0.179 0.171 0.278s-0.085 0.269-0.158 0.29c-0.571 0.163-1.14 0.204-1.645-0.236-0.028-0.031-0.050-0.067-0.064-0.108l-0.001-0.002c-0.011-0.031-0.017-0.067-0.017-0.104 0-0.010 0-0.019 0.001-0.029l-0 0.001c0.011-0.066 0.099-0.157 0.159-0.162 0.219-0.021 0.439-0.010 0.806-0.010zM33.53 9.716l0.216 0.136c-0.061 0.126-0.099 0.33-0.188 0.366-0.352 0.155-0.773 0.297-1.208 0.403l-0.055 0.011c-0.123 0.028-0.303-0.112-0.416-0.227-0.131-0.133-0.053-0.423 0.113-0.452 0.487-0.086 0.977-0.152 1.538-0.238zM18.988 26.379c0.229 0.123 0.42 0.157 0.514 0.288 0.256 0.365 0.49 0.75 0.7 1.152 0.103 0.192 0.009 0.399-0.164 0.454-0.095 0.030-0.266-0.059-0.336-0.158-0.252-0.344-0.508-0.741-0.741-1.152l-0.033-0.062c-0.055-0.1 0.030-0.302 0.061-0.522zM27.954 11.144c0.014-0.112 0-0.24 0.046-0.289 0.062-0.064 0.194-0.118 0.257-0.083 0.087 0.048 0.143 0.178 0.202 0.281 0.166 0.285 0.329 0.573 0.487 0.866 0.071 0.131 0.165 0.271 0.171 0.412 0.007 0.131-0.062 0.3-0.148 0.39-0.048 0.050-0.244 0.018-0.292-0.052-0.316-0.463-0.695-0.896-0.723-1.526zM28.938 6.23c-0.068 0.472-0.096 0.82-0.175 1.153-0.049 0.181-0.145 0.336-0.273 0.456l-0.001 0c-0.091 0.084-0.249 0.072-0.376 0.103-0.010-0.138-0.047-0.281-0.026-0.411 0.067-0.402 0.156-0.8 0.236-1.199 0.006-0.031 0.004-0.064 0.012-0.095 0.063-0.241 0.199-0.424 0.417-0.325 0.11 0.050 0.161 0.271 0.186 0.317zM23.040 9.302c0.192 0.028 0.441 0.042 0.679 0.109 0.081 0.023 0.2 0.191 0.187 0.263-0.025 0.13-0.118 0.3-0.217 0.338-0.073 0.027-0.157 0.043-0.245 0.043-0.085 0-0.166-0.015-0.241-0.042l0.005 0.002c-0.274-0.1-0.528-0.134-0.802-0.002-0.179 0.086-0.347-0.005-0.395-0.21-0.064-0.275 0.116-0.409 0.318-0.448 0.216-0.041 0.438-0.035 0.712-0.053zM27.306 22.874c-0.078 0.391-0.137 0.734-0.221 1.069-0.016 0.066-0.137 0.154-0.187 0.139-0.091-0.025-0.219-0.108-0.238-0.194-0.022-0.096-0.035-0.205-0.035-0.318 0-0.088 0.008-0.174 0.022-0.258l-0.001 0.009c0.064-0.343 0.127-0.669 0.007-1.020-0.058-0.168-0.041-0.436 0.18-0.436 0.12 0 0.291 0.17 0.345 0.311 0.088 0.225 0.093 0.49 0.127 0.697zM23.94 22.774c-0.044 0.092-0.066 0.2-0.125 0.247-0.36 0.285-0.721 0.573-1.1 0.822-0.097 0.064-0.267 0.025-0.391-0.018-0.181-0.062-0.219-0.335-0.068-0.446 0.414-0.306 0.832-0.61 1.259-0.891 0.068-0.046 0.205 0.003 0.293 0.054 0.060 0.035 0.086 0.146 0.131 0.232zM19.351 4.409c0.059 0.040 0.169 0.074 0.184 0.136 0.143 0.606 0.281 1.215 0.394 1.829 0.032 0.17-0.165 0.265-0.296 0.163-0.414-0.32-0.671-1.507-0.43-2.004 0.025-0.049 0.086-0.074 0.148-0.125zM24.462 6.133c-0.125-0.096-0.259-0.145-0.277-0.227-0.019-0.089 0.045-0.243 0.115-0.315 0.303-0.312 0.621-0.606 0.951-0.881 0.111-0.090 0.342-0.154 0.428-0.083 0.202 0.163 0.096 0.394-0.045 0.562-0.189 0.227-0.376 0.466-0.594 0.65-0.167 0.138-0.381 0.198-0.578 0.294zM16.598 9.338l-0.302 0.329c-0.086-0.108-0.214-0.197-0.251-0.325-0.1-0.32-0.232-0.833-0.349-1.351l-0.033-0.176c-0.016-0.070 0.034-0.214 0.086-0.239 0.084-0.039 0.222-0.055 0.285 0 0.125 0.107 0.269 0.249 0.31 0.41 0.108 0.417 0.165 0.854 0.254 1.351zM13.287 17.758c-0.278 0.586-0.488 1.185-1.005 1.504-0.087 0.054-0.279-0.015-0.372-0.1-0.158-0.145 0-0.264 0.077-0.388 0.242-0.384 0.466-0.785 0.724-1.155 0.066-0.095 0.235-0.142 0.349-0.129 0.078 0.008 0.142 0.161 0.226 0.267zM16.421 17.808c0.145 0.096 0.25 0.125 0.269 0.188 0.032 0.104 0.049 0.268 0 0.339-0.079 0.115-0.215 0.181-0.332 0.258-0.303 0.2-0.603 0.412-0.918 0.583-0.096 0.052-0.27 0.036-0.355-0.034-0.176-0.145-0.114-0.376 0.027-0.478 0.433-0.312 0.889-0.585 1.31-0.857zM32.104 15.157c-0.111 0.289-0.268 0.726-0.454 1.145-0.029 0.065-0.209 0.1-0.285 0.062-0.071-0.037-0.148-0.201-0.134-0.29 0.075-0.466 0.157-0.935 0.283-1.385 0.039-0.137 0.211-0.262 0.344-0.308 0.049-0.017 0.179 0.197 0.239 0.328 0.035 0.074 0.006 0.187 0.006 0.448zM13.2 11.678c0.491 0.507 0.433 1.196 0.487 1.831 0.010 0.118-0.117 0.287-0.219 0.373-0.053 0.045-0.27-0.027-0.275-0.069-0.077-0.642-0.137-1.288-0.184-1.934-0.004-0.055 0.112-0.122 0.192-0.201zM24.671 27.379c0.082 0.025 0.163 0.056 0.243 0.091 0.295 0.157 0.591 0.31 0.879 0.484 0.136 0.082 0.274 0.184 0.372 0.315 0.113 0.152-0.016 0.443-0.175 0.403-0.535-0.133-1.058-0.319-1.458-0.78-0.059-0.068-0.058-0.238-0.039-0.352 0.011-0.064 0.114-0.108 0.177-0.162zM18.16 11.864c0.028 0.102 0.125 0.26 0.091 0.359-0.18 0.525-0.388 1.039-0.6 1.549-0.026 0.062-0.137 0.118-0.202 0.108-0.058-0.008-0.137-0.101-0.152-0.172-0.112-0.568 0.242-1.585 0.636-1.841 0.040-0.027 0.106-0.004 0.226-0.004zM33.458 20.489c-0.062-0.045-0.19-0.1-0.256-0.206-0.027-0.042 0.059-0.234 0.134-0.296 0.3-0.256 0.631-0.511 0.974-0.748l0.041-0.027c0.094-0.063 0.291-0.068 0.36 0.003 0.064 0.066 0.074 0.315 0.016 0.406-0.293 0.471-0.664 0.83-1.268 0.866zM31.426 24.543c-0.254-0.030-0.364-0.034-0.47-0.061-0.045-0.012-0.112-0.072-0.112-0.112-0-0.008-0.001-0.017-0.001-0.027 0-0.083 0.022-0.162 0.060-0.23l-0.001 0.002c0.054-0.071 0.126-0.123 0.205-0.148 0.391-0.135 0.783-0.271 1.18-0.381 0.086-0.024 0.268 0.042 0.279 0.098 0.026 0.135-0.005 0.297-0.051 0.433-0.024 0.072-0.121 0.131-0.195 0.158-0.34 0.107-0.682 0.204-0.894 0.266zM19.642 21.289c-0.028 0.137-0.074 0.441-0.162 0.729-0.022 0.071-0.193 0.14-0.271 0.114s-0.171-0.175-0.168-0.269c0.007-0.573 0.035-1.127 0.084-1.675l-0.006 0.083c0.010-0.116 0.137-0.217 0.21-0.325 0.088 0.106 0.229 0.2 0.252 0.323 0.049 0.274 0.039 0.562 0.062 1.019zM37.981 4.672c0-1.125 0.236-1.978 0.709-2.559 0.478-0.588 1.091-0.881 1.837-0.881s1.34 0.253 1.78 0.76c0.446 0.507 0.669 1.317 0.669 2.429s-0.236 1.954-0.709 2.522c-0.473 0.569-1.104 0.853-1.893 0.853-0.682 0-1.241-0.226-1.676-0.677-0.226-0.235-0.403-0.559-0.532-0.973-0.123-0.42-0.185-0.912-0.185-1.474zM40.503 1.324c-0.542 0-0.988 0.278-1.337 0.835-0.344 0.556-0.515 1.373-0.515 2.448s0.164 1.861 0.492 2.355c0.327 0.494 0.763 0.742 1.305 0.742 0.548 0 0.994-0.278 1.337-0.835 0.349-0.563 0.524-1.375 0.524-2.439 0-1.069-0.166-1.854-0.499-2.355-0.328-0.5-0.763-0.751-1.305-0.751zM44.37 7.759h-0.669v-6.491h0.669v2.986h2.619v-2.985h0.669v6.491h-0.669v-3.412h-2.619v3.412zM51.095 7.759h-0.105l0.701-6.491h0.266l1.692 5.999 1.684-5.999h0.266l0.701 6.491h-0.669l-0.556-5.192-1.458 5.192h-0.508l-1.474-5.128-0.54 5.128zM60.763 1.269c0.102 0.118 0.153 0.269 0.153 0.454 0 0.155-0.030 0.312-0.089 0.473l-1.442 3.366v2.198h-0.669v-1.993l-1.612-4.497h0.685l1.539 4.182 1.402-3.254c0.059-0.154 0.089-0.315 0.089-0.482s-0.040-0.297-0.121-0.389l0.064-0.056zM1.136 9.465c0.364-0.021 0.79-0.033 1.22-0.033h0.001c0.407 0 0.833 0.049 1.278 0.147 0.455 0.098 0.899 0.283 1.335 0.555 0.449 0.266 0.823 0.611 1.114 1.018l0.007 0.011c0.312 0.414 0.563 0.964 0.752 1.651s0.284 1.519 0.284 2.5-0.142 1.863-0.426 2.647c-0.274 0.773-0.653 1.367-1.136 1.781-0.937 0.806-2.068 1.209-3.394 1.209-0.464 0-0.951-0.022-1.462-0.066h-0.71v-11.421h1.136zM1.178 20.755c0.199 0.022 0.45 0.033 0.753 0.033s0.53-0.005 0.682-0.017c0.152-0.011 0.36-0.054 0.625-0.131 0.282-0.093 0.526-0.209 0.752-0.351l-0.014 0.008c0.227-0.142 0.464-0.349 0.71-0.621 0.256-0.287 0.475-0.615 0.643-0.972l0.011-0.025c0.407-0.893 0.61-2.059 0.61-3.497 0-1.024-0.109-1.906-0.327-2.647-0.218-0.752-0.468-1.307-0.753-1.667-0.269-0.352-0.605-0.638-0.991-0.842l-0.016-0.008c-0.397-0.218-0.715-0.343-0.952-0.376-0.232-0.031-0.5-0.049-0.773-0.049-0.018 0-0.036 0-0.054 0l0.003-0c-0.312 0-0.615 0.017-0.908 0.049v11.111zM38.211 20.886h-0.185v-11.438h0.483l5.907 10.572v-10.572h0.185v11.438h-1.036l-5.353-9.477v9.477zM53.343 9.448h0.185v6.536c0 1.71-0.293 2.968-0.88 3.774-0.587 0.795-1.354 1.192-2.3 1.192-0.596 0-1.103-0.060-1.519-0.18-0.417-0.131-0.809-0.365-1.179-0.702-0.757-0.675-1.136-2.037-1.136-4.085v-6.536h1.179v6.52c0 1.982 0.26 3.306 0.781 3.97 0.265 0.327 0.539 0.55 0.824 0.67 0.293 0.12 0.643 0.18 1.051 0.18 0.909 0 1.633-0.382 2.172-1.144 0.549-0.773 0.824-1.999 0.824-3.676v-6.52zM58.371 20.886h-1.179v-11.274h-2.456v-0.163h6.105v0.163h-2.471v11.274z"></path>
</symbol>
<symbol id="icon-program-classes" viewBox="0 0 32 32">
<path fill="#674d40" style="fill: var(--color1, #674d40)" d="M23.048 8.572c-0.122-0.002-0.231-0.057-0.304-0.144l-0-0.001c-0.078-0.092-0.125-0.212-0.125-0.343 0-0.002 0-0.003 0-0.005v0c-0.033-1.889-0.712-3.689-1.888-5.011s-2.757-2.063-4.404-2.063-3.228 0.741-4.404 2.063c-1.178 1.322-1.855 3.122-1.888 5.011 0 0.131-0.045 0.256-0.125 0.348-0.074 0.087-0.182 0.143-0.304 0.145h-0c-0.122-0.002-0.23-0.058-0.303-0.144l-0.001-0.001c-0.079-0.092-0.127-0.213-0.127-0.345 0-0.001 0-0.002 0-0.004v0c0.029-2.154 0.796-4.209 2.134-5.722 1.34-1.509 3.141-2.358 5.018-2.358 1.879 0 3.681 0.847 5.020 2.359 1.338 1.51 2.104 3.566 2.132 5.72 0 0.131-0.045 0.256-0.125 0.348-0.073 0.087-0.182 0.143-0.303 0.145h-0z"></path>
<path fill="#674d40" style="fill: var(--color1, #674d40)" d="M24.302 19.732c-0.122-0.001-0.231-0.056-0.304-0.143l-0-0.001c-0.080-0.092-0.128-0.213-0.128-0.346 0-0 0-0.001 0-0.001v0c0-0.132 0.044-0.256 0.124-0.351 0.073-0.088 0.181-0.143 0.303-0.146h0c1.637-0.012 3.205-0.759 4.366-2.083 1.162-1.322 1.824-3.116 1.846-4.995-0.017-1.896-0.687-3.707-1.866-5.037s-2.769-2.068-4.422-2.054c-0.635 0-1.266 0.106-1.873 0.32-0.035 0.012-0.076 0.019-0.119 0.019-0.076 0-0.147-0.022-0.207-0.061l0.002 0.001c-0.102-0.066-0.176-0.167-0.207-0.286l-0.001-0.003c-0.012-0.043-0.019-0.093-0.019-0.144 0-0.082 0.018-0.16 0.050-0.231l-0.001 0.003c0.052-0.115 0.142-0.202 0.25-0.243 0.631-0.229 1.359-0.361 2.118-0.361 0.003 0 0.005 0 0.008 0h-0c1.882-0.014 3.69 0.828 5.030 2.342s2.102 3.578 2.118 5.734c-0.023 2.138-0.774 4.179-2.095 5.687-1.32 1.508-3.104 2.362-4.966 2.377h-0.005zM8.346 19.732h-0.004c-1.864-0.015-3.647-0.869-4.966-2.377-1.322-1.508-2.075-3.549-2.095-5.687 0.017-2.157 0.778-4.22 2.118-5.734s3.149-2.356 5.030-2.342c0.719-0.001 1.435 0.12 2.125 0.362 0.058 0.020 0.108 0.051 0.15 0.090l-0-0c0.044 0.041 0.080 0.091 0.106 0.146l0.001 0.003c0.033 0.069 0.053 0.149 0.053 0.235 0 0.118-0.037 0.228-0.101 0.317l0.001-0.002c-0.036 0.049-0.079 0.090-0.13 0.12l-0.002 0.001c-0.057 0.034-0.126 0.055-0.199 0.055-0.047 0-0.092-0.008-0.134-0.024l0.003 0.001c-0.556-0.202-1.198-0.319-1.867-0.319-0.002 0-0.005 0-0.007 0h0c-1.651-0.013-3.242 0.724-4.421 2.054s-1.851 3.141-1.866 5.037c0.020 1.879 0.684 3.672 1.844 4.995 1.162 1.324 2.73 2.071 4.367 2.083 0.060 0.001 0.116 0.015 0.166 0.039l-0.002-0.001c0.051 0.026 0.1 0.061 0.14 0.108 0.075 0.094 0.121 0.215 0.121 0.346 0 0.134-0.047 0.256-0.126 0.352l0.001-0.001c-0.039 0.044-0.085 0.080-0.138 0.105l-0.003 0.001c-0.048 0.023-0.104 0.037-0.164 0.037h-0z"></path>
<path fill="#674d40" style="fill: var(--color1, #674d40)" d="M24.302 32h-15.956c-0.122-0.002-0.231-0.057-0.304-0.144l-0.001-0.001c-0.078-0.092-0.125-0.212-0.125-0.343 0-0.002 0-0.003 0-0.005v0-12.269c0-0.131 0.045-0.256 0.125-0.349 0.074-0.087 0.183-0.142 0.304-0.143h0c0.114 0 0.223 0.051 0.303 0.143 0.081 0.093 0.125 0.218 0.125 0.349v11.773h15.098v-11.773c0-0.131 0.045-0.256 0.125-0.349 0.074-0.087 0.183-0.142 0.304-0.143h0c0.114 0 0.223 0.051 0.303 0.143 0.081 0.093 0.127 0.218 0.127 0.349v12.268c0 0.131-0.046 0.256-0.127 0.348-0.073 0.087-0.182 0.143-0.303 0.145h-0z"></path>
<path fill="#674d40" style="fill: var(--color1, #674d40)" d="M27.293 27.222h-15.955c-0.122-0.002-0.231-0.057-0.304-0.144l-0.001-0.001c-0.078-0.092-0.125-0.212-0.125-0.343 0-0.002 0-0.004 0-0.006v0c0-0.131 0.045-0.256 0.125-0.348 0.074-0.087 0.182-0.143 0.304-0.145h15.955c0.115 0 0.224 0.051 0.305 0.145 0.081 0.092 0.125 0.218 0.125 0.348 0 0.132-0.045 0.256-0.125 0.349-0.074 0.087-0.182 0.143-0.304 0.145h-0z"></path>
</symbol>
<symbol id="icon-program-host" viewBox="0 0 32 32">
<path fill="#674d40" style="fill: var(--color1, #674d40)" d="M24.621 14.939c0-6.705-6.161-11.099-12.311-11.099-6.175 0-12.31 4.416-12.31 11.099 0 2.529 0.965 5.002 2.719 6.963 0.048 0.057 0.077 0.132 0.077 0.214 0 0.030-0.004 0.058-0.011 0.086l0.001-0.002c-0.55 2.314-1.855 4.403-2.39 5.197-0.092 0.138-0.147 0.307-0.147 0.49 0 0.13 0.028 0.253 0.078 0.364l-0.002-0.006c0.12 0.271 0.357 0.438 0.621 0.438h0.018c2.619-0.074 5.654-0.922 7.529-3.039 0.045-0.053 0.112-0.086 0.187-0.086 0.023 0 0.046 0.003 0.067 0.009l-0.002-0c1.152 0.312 2.353 0.472 3.566 0.472 6.173 0 12.311-4.415 12.311-11.1zM8.96 24.52c-0.085-0.023-0.182-0.037-0.282-0.037-0.338 0-0.64 0.152-0.842 0.392l-0.001 0.002c-1.876 2.116-4.94 2.598-6.39 2.705 0.663-1.050 1.74-2.976 2.245-5.1 0.028-0.11 0.045-0.236 0.045-0.366 0-0.377-0.137-0.721-0.364-0.987l0.002 0.002c-1.594-1.782-2.436-3.923-2.436-6.193 0-5.527 5.102-10.022 11.373-10.022 6.272 0 11.373 4.495 11.373 10.022s-5.101 10.024-11.373 10.024c-0.005 0-0.011 0-0.016 0-1.186 0-2.334-0.162-3.423-0.464l0.090 0.021z"></path>
<path fill="#674d40" style="fill: var(--color1, #674d40)" d="M27.635 23.875c2.733-1.585 4.365-4.285 4.365-7.224 0-4.154-3.273-7.703-7.782-8.439-0.256-0.042-0.494 0.163-0.53 0.456-0.037 0.294 0.141 0.567 0.397 0.609 4.045 0.659 6.979 3.761 6.979 7.374 0 2.525-1.44 4.867-3.85 6.264-0.47 0.273-0.721 0.873-0.611 1.462 0.228 1.233 0.714 2.373 1.103 3.146-2.767-0.529-3.817-2.052-4.148-2.711-0.205-0.408-0.589-0.66-1.001-0.66h-0.038c-0.52 0-1.041-0.041-1.546-0.123-0.256-0.041-0.494 0.164-0.53 0.458s0.142 0.566 0.399 0.607c0.549 0.090 1.114 0.134 1.677 0.134h0.038c0.079 0 0.151 0.046 0.188 0.122 1.27 2.524 4.188 3.168 5.385 3.328 0.264 0.035 0.515-0.102 0.655-0.362 0.066-0.12 0.105-0.262 0.105-0.414 0-0.154-0.040-0.299-0.111-0.425l0.002 0.004c-0.361-0.644-1.004-1.933-1.262-3.328-0.004-0.016-0.006-0.035-0.006-0.055 0-0.093 0.048-0.175 0.121-0.223l0.001-0.001zM5.016 13.015c-0.896 0-1.626 0.837-1.626 1.865s0.73 1.864 1.626 1.864c0.896 0 1.626-0.836 1.626-1.864s-0.73-1.865-1.626-1.865zM5.016 15.668c-0.379 0-0.687-0.355-0.687-0.788 0-0.435 0.307-0.788 0.687-0.788 0.379 0 0.687 0.353 0.687 0.788s-0.308 0.788-0.687 0.788zM9.651 13.015c-0.896 0-1.626 0.837-1.626 1.865s0.73 1.864 1.626 1.864c0.896 0 1.624-0.836 1.624-1.864s-0.73-1.865-1.626-1.865zM9.651 15.668c-0.379 0-0.687-0.355-0.687-0.788 0-0.435 0.307-0.788 0.687-0.788 0.378 0 0.686 0.353 0.686 0.788s-0.307 0.788-0.686 0.788zM14.285 13.015c-0.896 0-1.624 0.837-1.624 1.865s0.73 1.864 1.626 1.864c0.896 0 1.624-0.836 1.624-1.864s-0.73-1.865-1.626-1.865zM14.285 15.668c-0.379 0-0.686-0.355-0.686-0.788 0-0.435 0.307-0.788 0.686-0.788s0.687 0.353 0.687 0.788c0 0.435-0.307 0.788-0.687 0.788zM18.92 13.015c-0.896 0-1.626 0.837-1.626 1.865s0.73 1.864 1.626 1.864c0.896 0 1.626-0.836 1.626-1.864s-0.73-1.865-1.626-1.865zM18.92 15.668c-0.379 0-0.687-0.355-0.687-0.788 0-0.435 0.308-0.788 0.687-0.788s0.687 0.353 0.687 0.788c0 0.435-0.308 0.788-0.687 0.788z"></path>
</symbol>
<symbol id="icon-program-number" viewBox="0 0 32 32">
<path fill="#674d40" style="fill: var(--color1, #674d40)" d="M11.887 0c-3.293 0-5.974 3.077-5.974 6.856s2.682 6.856 5.975 6.856 5.975-3.077 5.975-6.856-2.683-6.856-5.975-6.856zM11.887 12.562c-2.749 0-4.979-2.566-4.979-5.714 0-3.146 2.236-5.713 4.979-5.713 2.749 0 4.979 2.566 4.979 5.713 0 3.149-2.236 5.714-4.979 5.714zM24.125 2.845c-2.474 0-4.484 2.307-4.484 5.146s2.010 5.146 4.484 5.146c2.476 0 4.485-2.307 4.485-5.146s-2.010-5.146-4.485-5.146zM24.125 12c-1.924 0-3.488-1.795-3.488-4.003s1.564-4.003 3.488-4.003c1.925 0 3.489 1.795 3.489 4.003s-1.564 4.003-3.489 4.003z"></path>
<path fill="#674d40" style="fill: var(--color1, #674d40)" d="M32.148 20.678c-0.452-3.126-2.145-5.761-5.029-7.142 0 0-1.276 1.107-2.994 1.073-1.875-0.042-2.994-1.073-2.994-1.073s-1.393 0.596-2.516 1.837c-1.039-1.059-2.793-1.92-2.793-1.92s-1.606 1.402-3.941 1.38c-2.45-0.020-3.928-1.381-3.928-1.381s-5.298 2.089-6.415 9.176c0 0-1.198 3.757 1.576 9.372h17.554s1.247-2.488 1.467-4.003h8.731c2.145-3.73 1.284-7.319 1.284-7.319zM20.050 30.857h-16.32c-2.131-4.646-1.21-8.040-1.21-8.040 0.52-3.555 2.511-6.554 5.359-8.077 1.123 0.773 2.513 1.235 4.011 1.235s2.888-0.462 4.035-1.251l-0.024 0.016c2.848 1.523 4.838 4.522 5.359 8.077-0.006 0 0.879 4.178-1.211 8.040zM30.285 26.854h-7.949c0.305-2.019-0.099-4.227-0.099-4.227-0.36-2.496-1.386-4.746-2.89-6.484 0.49-0.513 1.051-0.951 1.669-1.3l0.036-0.019c0.863 0.58 1.926 0.925 3.070 0.925s2.207-0.345 3.090-0.938l-0.020 0.013c2.108 1.157 3.588 3.393 3.972 6.043 0 0 0.727 2.833-0.879 5.987z"></path>
</symbol>
<symbol id="icon-program-time" viewBox="0 0 32 32">
<path fill="#674d40" style="fill: var(--color1, #674d40)" d="M16 0c-8.823 0-16 7.177-16 16 0 8.822 7.177 16 16 16 8.822 0 16-7.178 16-16 0-8.823-7.178-16-16-16zM16 30.934c-8.234 0-14.934-6.7-14.934-14.934s6.7-14.934 14.934-14.934 14.934 6.7 14.934 14.934-6.7 14.934-14.934 14.934z"></path>
<path fill="#674d40" style="fill: var(--color1, #674d40)" d="M16.534 13.878v-5.409c0-0.295-0.239-0.534-0.534-0.534s-0.534 0.239-0.534 0.534v5.409c-0.747 0.2-1.324 0.777-1.52 1.51l-0.003 0.015h-3.809c-0.008-0-0.017-0.001-0.026-0.001-0.295 0-0.534 0.239-0.534 0.534s0.239 0.534 0.534 0.534c0.009 0 0.018-0 0.027-0.001l-0.001 0h3.809c0.238 0.918 1.066 1.6 2.057 1.6 1.178 0 2.134-0.956 2.134-2.132 0-0.992-0.684-1.819-1.6-2.058zM16 17.002c-0.589-0.001-1.066-0.478-1.066-1.068s0.478-1.068 1.068-1.068c0 0 0.001 0 0.001 0h-0c0.589 0.001 1.066 0.478 1.066 1.068s-0.478 1.068-1.068 1.068c-0 0-0.001 0-0.001 0h0zM16 5.268c0.294 0 0.534-0.238 0.534-0.532v-0.534c0-0.295-0.239-0.534-0.534-0.534s-0.534 0.239-0.534 0.534v0 0.534c0 0.294 0.239 0.532 0.534 0.532zM16 26.602c-0.295 0-0.534 0.239-0.534 0.534v0 0.532c0 0.295 0.239 0.534 0.534 0.534s0.534-0.239 0.534-0.534v-0.532c0-0 0-0.001 0-0.001 0-0.294-0.238-0.532-0.532-0.532-0 0-0.001 0-0.001 0h0zM27.734 15.402h-0.534c-0.008-0-0.017-0.001-0.026-0.001-0.295 0-0.534 0.239-0.534 0.534s0.239 0.534 0.534 0.534c0.009 0 0.018-0 0.027-0.001l-0.001 0h0.534c0.008 0 0.017 0.001 0.026 0.001 0.295 0 0.534-0.239 0.534-0.534s-0.239-0.534-0.534-0.534c-0.009 0-0.018 0-0.027 0.001l0.001-0zM4.8 15.402h-0.534c-0.294 0-0.533 0.239-0.533 0.533s0.239 0.533 0.533 0.533v0h0.534c0.008 0 0.017 0.001 0.026 0.001 0.295 0 0.534-0.239 0.534-0.534s-0.239-0.534-0.534-0.534c-0.009 0-0.018 0-0.027 0.001l0.001-0zM23.919 7.261l-0.378 0.378c-0.096 0.097-0.156 0.23-0.156 0.377 0 0.295 0.239 0.534 0.534 0.534 0.148 0 0.281-0.060 0.378-0.157v0l0.376-0.378c0.096-0.096 0.156-0.23 0.156-0.377 0-0.294-0.239-0.533-0.533-0.533-0.147 0-0.28 0.060-0.377 0.156v0zM7.703 23.478l-0.376 0.378c-0.096 0.096-0.156 0.23-0.156 0.377 0 0.294 0.239 0.533 0.533 0.533 0.147 0 0.28-0.060 0.377-0.156l0.378-0.378c0.096-0.097 0.156-0.23 0.156-0.377 0-0.295-0.239-0.534-0.534-0.534-0.147 0-0.281 0.060-0.378 0.157v0zM24.297 23.478c-0.097-0.097-0.23-0.156-0.378-0.156-0.295 0-0.534 0.239-0.534 0.534 0 0.147 0.060 0.281 0.156 0.378v0l0.378 0.376c0.096 0.097 0.23 0.158 0.378 0.158s0.281-0.060 0.378-0.158l0-0c0.097-0.096 0.157-0.23 0.157-0.378s-0.060-0.281-0.157-0.378l-0-0-0.378-0.376zM8.081 7.261c-0.097-0.097-0.23-0.156-0.378-0.156-0.295 0-0.534 0.239-0.534 0.534 0 0.147 0.060 0.281 0.156 0.378v0l0.378 0.376c0.096 0.097 0.23 0.157 0.378 0.157s0.281-0.060 0.378-0.157l0-0c0.097-0.096 0.157-0.23 0.157-0.378s-0.060-0.281-0.157-0.378l-0-0-0.378-0.376z"></path>
</symbol>
<symbol id="icon-star" viewBox="0 0 34 32">
<path fill="none" stroke="#ab816c" style="stroke: var(--color2, #ab816c)" stroke-linejoin="miter" stroke-linecap="butt" stroke-miterlimit="4" stroke-width="1.6842" d="M15.901 3.048c0.113-0.341 0.429-0.582 0.801-0.582s0.688 0.241 0.799 0.576l0.002 0.006 2.509 7.727c0.339 1.022 1.286 1.747 2.403 1.747 0 0 0 0 0 0h8.125c0.465 0.001 0.841 0.377 0.841 0.842 0 0.279-0.135 0.525-0.344 0.679l-0.002 0.002-6.573 4.775c-0.633 0.465-1.040 1.206-1.040 2.043 0 0.279 0.045 0.548 0.129 0.799l-0.005-0.018 2.509 7.727c0.026 0.078 0.041 0.168 0.041 0.261 0 0.465-0.377 0.842-0.842 0.842-0.187 0-0.359-0.061-0.499-0.163l0.002 0.002-6.572-4.775c-0.411-0.301-0.927-0.482-1.485-0.482s-1.074 0.181-1.492 0.487l0.007-0.005-6.572 4.775c-0.137 0.101-0.31 0.162-0.497 0.162-0.465 0-0.842-0.377-0.842-0.842 0-0.094 0.015-0.185 0.044-0.269l-0.002 0.006 2.509-7.725c0.079-0.233 0.124-0.502 0.124-0.782 0-0.837-0.407-1.578-1.033-2.038l-0.007-0.005-6.572-4.773c-0.211-0.155-0.346-0.402-0.346-0.68 0-0.465 0.376-0.842 0.841-0.842h8.123c0 0 0 0 0 0 1.117 0 2.064-0.724 2.398-1.729l0.005-0.018 2.509-7.725z"></path>
</symbol>
<symbol id="icon-star-filled" viewBox="0 0 34 32">
<path fill="#ab816c" style="fill: var(--color2, #ab816c)" d="M15.591 2.789c0.505-1.551 2.7-1.551 3.203 0l2.509 7.727c0.227 0.68 0.858 1.162 1.601 1.162 0.001 0 0.002 0 0.002 0h8.123c1.634 0 2.311 2.088 0.99 3.048l-6.572 4.775c-0.423 0.31-0.694 0.804-0.694 1.362 0 0.186 0.030 0.365 0.086 0.533l-0.003-0.012 2.509 7.725c0.505 1.553-1.272 2.843-2.592 1.883l-6.572-4.775c-0.274-0.201-0.618-0.321-0.989-0.321s-0.716 0.12-0.994 0.325l0.005-0.003-6.573 4.775c-1.319 0.96-3.096-0.33-2.592-1.883l2.511-7.725c0.052-0.155 0.082-0.335 0.082-0.521 0-0.558-0.271-1.052-0.689-1.359l-0.005-0.003-6.573-4.775c-1.319-0.96-0.64-3.048 0.99-3.048h8.125c0.743-0.001 1.373-0.482 1.597-1.15l0.003-0.012 2.511-7.727z"></path>
</symbol>
<symbol id="icon-twitter" viewBox="0 0 34 32">
<path d="M34.133 3.669c-1.17 0.587-2.528 1.021-3.96 1.229l-0.072 0.009c1.451-0.969 2.558-2.492 3.078-4.324-1.269 0.857-2.754 1.511-4.349 1.875l-0.088 0.017c-1.284-1.527-3.115-2.475-5.111-2.475-3.874 0-6.993 3.516-6.993 7.825 0 0.619 0.047 1.216 0.162 1.783-5.818-0.318-10.965-3.435-14.423-8.183-0.604 1.145-0.958 2.503-0.958 3.944 0 0.004 0 0.008 0 0.012v-0.001c0 2.709 1.248 5.109 3.108 6.5-1.177-0.040-2.263-0.394-3.188-0.98l0.026 0.015v0.085c0 3.804 2.426 6.961 5.606 7.689-0.57 0.173-1.19 0.256-1.835 0.256-0.448 0-0.9-0.028-1.325-0.132 0.907 3.098 3.479 5.376 6.539 5.449-2.381 2.082-5.404 3.337-8.676 3.337-0.574 0-1.124-0.030-1.675-0.107 3.1 2.234 6.773 3.509 10.735 3.509 12.877 0 19.917-11.925 19.917-22.259 0-0.346-0.011-0.681-0.026-1.011 1.395-1.13 2.563-2.475 3.469-3.993l0.038-0.068z"></path>
</symbol>
</defs>
</svg>
